<svg width="510" height="218" fill="none" xmlns="http://www.w3.org/2000/svg"><path d="M320.42 144.755c8.379 10.26 23.94 18.297 44.973 18.297 27.36 0 44.973-13.851 44.973-33.516 0-17.1-15.048-26.163-26.676-27.36 12.654-2.223 24.966-11.628 24.966-25.992 0-18.981-16.416-30.951-43.092-30.951-20.007 0-34.371 7.695-43.605 18.126l11.97 15.048c8.037-7.695 17.955-11.97 29.07-11.97 11.97 0 21.204 4.617 21.204 13.68 0 8.55-8.379 12.654-21.033 12.654-4.446 0-12.141 0-14.193-.171v21.204c1.71-.171 9.405-.171 14.193-.171 15.903 0 22.914 4.275 22.914 13.509 0 8.721-7.695 14.706-21.546 14.706-11.115 0-23.598-4.788-31.464-12.996l-12.654 15.903zM447.514 161h24.453V68.318h33.174V46.943h-90.972v21.375h33.345V161z" fill="#103B41"/><path fill-rule="evenodd" clip-rule="evenodd" d="M285.841 90.901c-2.174-3.025-4.284-6.12-5.92-9.504-1.455-3.01-2.532-6.223-3.609-9.438-1.315-3.924-2.631-7.849-4.634-11.404C245.324 13.794 198.299-.636 152.857.022c-41.688.603-110.39 24.554-141.354 96.98a144.086 144.086 0 00-5.197 14.56c-2.269 7.635-3.942 15.5-5.042 23.457l-.045-.007c-5.078 50.354 6.303 76.536 23.098 81.828 11.241 3.542 21.146-1.272 32.773-11.045 12.782-10.744 17.795-18.849 16.38-30.004-1.464-11.532-13.91-19.921-25.177-22.902-16.3-4.71-9.714-15.17-9.714-15.17s17.547 12.586 45.883 9.371c25.85-2.933 30.773-8.334 30.773-8.334 0-26.653 14.341-45.264 33.049-47.083-13.007 6.143-20.546 27.308-20.546 44.472v45.43h6.467c18.957 0 35.145-19.075 35.145-40.615v-8.92s14.197-7.707 34.335-9.993c9.351-1.061 16.704-.132 23.057 1.711-3.611-4.501-5.931-9.806-6.123-16.042-.085-2.775 4.5-4 5.5 0 3.469 15.7 12.287 22.645 34.012 29.356 4.415.913 9.306 1.234 15.02.585 9.996-1.386 19.98-6.931 21.594-18.676 1.512-10.999-3.955-18.516-9.547-26.206-.453-.623-.906-1.246-1.357-1.873zm-108.262 45.477c2.548 25.532-11.96 36.337-11.96 36.337 20.223-1.244 43.12-19.768 41.999-43.517 0 0-8.964-1.292-30.039 7.18zm76.04-40.663c4.695 0 8.5-4.03 8.5-9s-3.805-9-8.5-9c-4.694 0-8.5 4.03-8.5 9s3.806 9 8.5 9z" fill="#fff"/><path fill-rule="evenodd" clip-rule="evenodd" d="M285.802 91.166c-2.178-3.03-4.294-6.13-5.935-9.52-1.46-3.014-2.542-6.232-3.624-9.451-1.321-3.93-2.642-7.86-4.651-11.42-26.43-46.84-73.485-61.35-118.936-60.758C110.96.56 42.278 24.43 11.416 96.871a143.737 143.737 0 00-5.177 14.565c-2.258 7.638-3.92 15.507-5.008 23.469l-.045-.007c-5.004 50.388 6.417 76.609 23.224 81.93 11.249 3.561 21.148-1.243 32.763-11.007 12.769-10.734 17.771-18.839 16.339-30.005-1.48-11.544-13.942-19.958-25.216-22.958-16.31-4.738-9.739-15.196-9.739-15.196s17.57 12.622 45.907 9.445c25.851-2.898 30.768-8.296 30.768-8.296-.04-26.675 14.276-45.28 32.986-47.073-13.001 6.128-20.51 27.3-20.485 44.478l.068 45.468 6.468.009c18.961.028 35.124-19.039 35.092-40.597l-.013-8.928s14.188-7.693 34.327-9.95c9.532-1.069 16.991-.072 23.431 1.854-3.746-4.562-6.167-9.957-6.373-16.316-.089-2.774 4.498-3.991 5.505.008 3.589 16.12 12.81 23.02 35.869 29.934 3.901.634 8.186.795 13.072.247 9.996-1.374 19.974-6.908 21.571-18.66 1.496-11.007-3.983-18.538-9.588-26.243-.454-.623-.908-1.248-1.36-1.876zm-108.104 45.175c2.588 25.524-11.916 36.302-11.916 36.302 20.239-1.214 43.128-19.695 41.971-43.434 0 0-8.974-1.304-30.055 7.132zm75.039-44.53c3.593.005 6.501-3.123 6.495-6.987-.006-3.864-2.923-7.001-6.516-7.006-3.593-.005-6.501 3.123-6.495 6.987.006 3.864 2.923 7 6.516 7.006z" fill="#17AF66"/></svg>