<svg xmlns="http://www.w3.org/2000/svg" viewBox="0 0 48 48"><path fill="#283593" fill-rule="evenodd" d="M22.9 3.29a2.25 2.25 0 012.2 0l16.8 9.43a2.12 2.12 0 011.1 1.85v18.86c0 .77-.42 1.47-1.1 1.85l-16.8 9.43a2.25 2.25 0 01-2.2 0L6.1 35.28A2.12 2.12 0 015 33.43V14.57c0-.77.42-1.47 1.1-1.85l16.8-9.43z" clip-rule="evenodd"/><path fill="#5c6bc0" fill-rule="evenodd" d="M5.3 34.4c-.26-.35-.3-.69-.3-1.14V14.5c0-.76.42-1.46 1.1-1.84l16.74-9.38c.68-.38 1.6-.37 2.27 0l16.72 9.34c.27.15.47.33.66.58L5.3 34.4z" clip-rule="evenodd"/><path fill="#fff" fill-rule="evenodd" d="M24 10a14 14 0 11-.01 28.01A14 14 0 0124 10zm0 7a7 7 0 110 14 7 7 0 010-14z" clip-rule="evenodd"/><path fill="#3949ab" fill-rule="evenodd" d="M42.48 13.2c.52.49.51 1.22.51 1.79 0 3.8-.03 14.59.01 18.38 0 .4-.13.82-.32 1.13L23.59 24l18.9-10.8z" clip-rule="evenodd"/></svg>