<svg class="prefix__prefix__icon" viewBox="0 0 1024 1024" xmlns="http://www.w3.org/2000/svg"><path d="M512 1024c141.39 0 256-114.61 256-256S653.39 512 512 512 256 397.39 256 256 370.61 0 512 0c282.77 0 512 229.23 512 512s-229.23 512-512 512z" fill="#EDEDEE"/><path d="M512 0C370.61 0 256 114.61 256 256s114.61 256 256 256 256 114.61 256 256-114.61 256-256 256C229.23 1024 0 794.77 0 512S229.23 0 512 0z" fill="#504B5A"/><path d="M420.57 768a91.43 91.43 0 10182.86 0 91.43 91.43 0 10-182.86 0z" fill="#EDEDEE"/><path d="M420.57 256a91.43 91.43 0 10182.86 0 91.43 91.43 0 10-182.86 0z" fill="#504B5A"/></svg>