<svg xmlns="http://www.w3.org/2000/svg" viewBox="0 0 256 256"><path d="M106.33 255.08c-50-9.09-90.17-47.7-101.18-97.3-3.19-14.1-3.44-42.7-.5-56.1 5.36-24.4 16.57-45.4 33.33-62.5 17.76-18.2 37-29.1 63-35.8 7.25-1.86 11.2-2.16 28.27-2.16s21.03.3 28.27 2.16c50.1 12.8 85.61 49.1 96.42 98.3 1.92 8.78 2.3 13.3 2.24 27.5-.04 14.7-.4 18.5-2.62 28.1-8.73 37.6-33.24 69.1-67.06 86.3-8.73 4.44-24.8 9.7-35.22 11.5-11.01 1.93-33.93 1.89-44.74-.07z" fill="#fefefe"/><path d="M119.23 227.08c-22.52-5.68-42.56-26.6-62.1-64.7-27.88-54.4-31.45-104-8.6-119 7.82-4.88 19.24-4.7 29.36.44 5.61 2.86 7.21 4.66 10.41 11.7 3.94 8.67 5.48 18.6 6.14 39.6l.62 19.3 3.15-7.29c1.74-4 5.24-10.9 7.8-15.4 2.54-4.45 4.63-9.3 4.63-10.8 0-1.48-1.1-5.35-2.48-8.62-2.54-6.08-2.94-9.38-1.86-14.9.62-3.12.62-3.13 7.19-3.13h6.57l4.1-5.34c4.62-6.04 13.58-13.4 21.32-17.4 4.49-2.34 6.4-2.72 13.7-2.72 7.51 0 9 .32 13.28 2.84 2.64 1.56 4.59 3.05 4.33 3.3s-3.05-.28-6.21-1.2c-7.88-2.31-15.77-1.48-23.8 2.5-19.06 9.44-38.4 45-30.86 56.6 1.02 1.58 3.51 2.99 7.1 4.04 5.84 1.7 8.65 1.26 3.78-.6-10.22-3.92-8.1-13.2 6.85-30.1l8.52-9.64-.57-5.5c-.5-5-.35-5.64 1.67-6.73 2.78-1.5 7.31-.65 10.61 2 3.14 2.48 12.9 2.71 21.13.5 3-.81 8.24-1.48 11.61-1.49 5.77-.01 6.22.15 6.8 2.5.35 1.36.38 3.15.07 3.96s.37 3.6 1.52 6.21c2.57 5.86 3.53 19.7 1.9 27.3-.64 2.98-2.93 9.08-5.09 13.6-5.4 11.2-5.61 12.9-2.5 20.3 5.32 12.7 9.2 37 8.2 51.1-.3 4.15-1.72 13.4-3.18 20.5-2.78 13.7-2.56 18.5 1 21.5.8.68 1.48 2.68 1.48 4.44 0 3.72-2.78 6.71-7.84 8.41-4.74 1.6-14.97 1.42-19.93-.36-5.93-2.11-10.82-1.87-14.88.72-3.06 1.95-5.01 2.24-16.37 2.46-8.76.17-14.78-.22-18.75-1.22zm-15.08-35.2c-8.82-26.1-6.08-55.4 8.02-85.9l4.25-9.16-4.55-3.98-3.97 8.66c-16.17 35.2-18.65 66.2-7.07 89.3 3.07 6.12 5.85 10.9 6.36 10.9.14 0-1.23-4.39-3.03-9.75zm75.89-87.5l2.08-5.25-.45 4.37c-.26 2.49-.08 4 .4 3.5.82-.82 5.93-13.7 5.93-15 0-.31-1.35.58-3 1.98-3.07 2.6-8.57 4.61-12.7 4.62-2.09 0-2.22.33-1.65 3.76 1.13 6.77 1.43 7.25 4.43 7.25 2.5 0 3.1-.63 4.93-5.25z" fill="#fcfbfb"/><path d="M119.23 227.08c-22.52-5.68-42.56-26.6-62.1-64.7-21.33-41.7-28.67-80.3-19.84-104 6.35-17.1 23.3-23 40.67-14.2 5.61 2.86 7.21 4.66 10.42 11.7 3.93 8.67 5.47 18.6 6.14 39.6l.6 19.3 3.16-7.29c1.74-4.01 5.24-10.9 7.79-15.4 2.55-4.45 4.64-9.31 4.64-10.8 0-1.48-1.1-5.35-2.48-8.62-2.54-6.08-2.94-9.38-1.86-14.9.62-3.12.62-3.13 7.19-3.13h6.57l4.1-5.34c4.62-6.04 13.58-13.4 21.32-17.4 4.49-2.34 6.4-2.72 13.7-2.72 7.51 0 9 .32 13.28 2.84 2.64 1.56 4.59 3.05 4.33 3.3s-3.05-.28-6.21-1.2c-7.88-2.31-15.77-1.48-23.8 2.5-19.06 9.44-38.4 45-30.86 56.6 1.02 1.58 3.51 2.99 7.1 4.04 5.84 1.7 8.65 1.26 3.78-.61-10.22-3.91-8.1-13.2 6.85-30.1l8.52-9.63-.57-5.51c-.5-5-.35-5.63 1.67-6.72 2.78-1.5 7.31-.66 10.62 1.99 3.13 2.49 12.9 2.72 21.13.5 2.99-.8 8.23-1.47 11.6-1.48 5.77-.01 6.22.15 6.8 2.49.35 1.37.38 3.16.07 3.97-.31.8.37 3.6 1.52 6.2 2.57 5.87 3.53 19.7 1.89 27.3-.63 2.99-2.92 9.09-5.08 13.6-5.4 11.2-5.61 12.9-2.5 20.3 5.32 12.7 9.2 37 8.2 51.1-.3 4.16-1.72 13.4-3.18 20.5-2.78 13.7-2.56 18.5 1 21.5.8.69 1.48 2.69 1.48 4.45 0 3.72-2.78 6.7-7.84 8.4-4.74 1.6-14.98 1.43-19.94-.35-5.92-2.11-10.8-1.87-14.88.72-3.05 1.95-5 2.24-16.36 2.46-8.76.16-14.78-.23-18.75-1.22zm-15.08-35.2c-8.82-26.1-6.08-55.4 8.02-85.9l4.25-9.16-4.55-3.98-3.97 8.66c-16.17 35.2-18.65 66.2-7.07 89.3 3.07 6.12 5.85 10.9 6.36 10.9.14 0-1.23-4.39-3.03-9.75zm75.89-87.5l2.08-5.25-.45 4.37c-.26 2.49-.08 4 .4 3.5.82-.82 5.93-13.7 5.93-15 0-.31-1.35.58-3 1.98-3.07 2.6-8.57 4.61-12.7 4.62-2.09 0-2.22.33-1.65 3.76 1.13 6.77 1.43 7.25 4.43 7.25 2.5 0 3.1-.63 4.93-5.25z" fill="#fbfbfb"/><path d="M119.23 227.08c-12.3-3.11-26.89-13.1-37.3-25.6-17.46-20.9-36.11-58.2-43.85-87.4-2.78-10.6-3.21-14-3.63-28.7-.42-14.9-.24-17.4 1.6-23.6 2.5-8.31 5.26-12.6 10.81-16.9 8.03-6.17 19.94-6.5 31.05-.86 5.61 2.86 7.21 4.66 10.42 11.7 3.93 8.67 5.47 18.6 6.14 39.6l.6 19.3 3.16-7.29c1.74-4 5.24-10.9 7.79-15.4 2.55-4.45 4.64-9.3 4.64-10.8 0-1.48-1.1-5.35-2.48-8.62-2.54-6.08-2.94-9.38-1.86-14.9.62-3.12.62-3.13 7.19-3.13h6.57l4.1-5.34c4.62-6.04 13.58-13.4 21.32-17.4 4.49-2.34 6.4-2.72 13.7-2.72 7.51 0 9 .32 13.28 2.84 2.64 1.56 4.59 3.05 4.33 3.3s-3.05-.28-6.21-1.2c-7.88-2.31-15.77-1.48-23.8 2.5-19.06 9.44-38.4 45-30.86 56.6 1.02 1.58 3.51 2.99 7.1 4.04 5.84 1.7 8.65 1.26 3.78-.61-10.21-3.91-8.1-13.2 6.85-30.1l8.52-9.63-.57-5.51c-.5-5-.35-5.63 1.67-6.72 2.78-1.5 7.31-.65 10.62 1.99 3.13 2.49 12.9 2.72 21.13.5 3-.8 8.23-1.47 11.6-1.48 5.78-.01 6.22.15 6.8 2.49.35 1.37.38 3.16.07 3.97-.31.8.37 3.6 1.52 6.2 2.57 5.87 3.53 19.7 1.89 27.3-.63 2.99-2.92 9.09-5.08 13.6-5.4 11.2-5.61 12.9-2.5 20.3 5.32 12.7 9.2 37 8.2 51.1-.3 4.16-1.72 13.4-3.18 20.5-2.78 13.7-2.56 18.5 1 21.5.8.7 1.48 2.69 1.48 4.45 0 3.72-2.78 6.7-7.84 8.4-4.74 1.6-14.97 1.43-19.93-.35-5.93-2.11-10.82-1.87-14.88.72-3.06 1.95-5.01 2.24-16.37 2.46-8.76.17-14.78-.22-18.75-1.22zm-15.08-35.2c-8.82-26.1-6.08-55.4 8.02-85.9l4.25-9.16-4.55-3.98-3.97 8.66c-16.17 35.2-18.65 66.2-7.07 89.3 3.07 6.12 5.85 10.9 6.36 10.9.14 0-1.23-4.39-3.03-9.75zm75.89-87.5l2.08-5.25-.45 4.37c-.26 2.49-.08 4 .4 3.5.82-.82 5.93-13.7 5.93-15 0-.31-1.35.58-3 1.98-3.07 2.6-8.57 4.61-12.7 4.62-2.09 0-2.22.33-1.65 3.76 1.13 6.77 1.43 7.25 4.43 7.25 2.5 0 3.1-.63 4.93-5.25z" fill="#a08470"/><path d="M119.23 227.08c-22.22-6.14-42.56-28.1-61.7-66.5-16.18-32.4-23.02-58.2-21.93-81.9.9-19.4 6.33-30.1 17.76-35.1 6.4-2.78 15.57-2.41 23.11.93 8.76 3.86 11.9 8.32 15.58 21.9 1.7 6.37 2.13 11.7 2.55 31.2l.5 23.5 1.7-5c1.88-5.48 8.83-19.8 12.4-25.4 3.35-5.34 3.62-10.6.87-16.6a25.2 25.2 0 01-2.3-10.2c-.02-8.04.24-8.32 7.78-8.39l6.59-.05 3.73-4.94c4.58-6.06 13.19-13 21.03-17 5-2.54 6.96-2.97 13.39-2.93 6.14.03 8.35.5 12 2.56 2.46 1.38 3.57 2.23 2.48 1.88-14.09-4.48-26.49-1.15-38.49 10.4-14.88 14.2-25 38.4-20.04 47.9 1.9 3.7 1.47 4.06-1.28 1.08l-1.94-2.11-1.94 3.86c-4.32 8.62-11.2 27.5-13.79 37.9-2.36 9.52-2.72 13-2.71 25.5.02 13 .29 15.3 2.67 22.5 3.18 9.64 11.2 23.3 15.17 25.7.57.34-.05-3.5-1.39-8.55-2.87-10.9-3.53-29.6-1.26-36.1l1.36-3.88 3.06 5.38c5.23 9.22 20.34 22.8 27.28 24.6 5.18 1.3 5.06-5.51-.37-20.2-4.68-12.7-5.61-17.5-5.65-29.5-.04-11.9 1.44-17.3 8.17-29.6 4.6-8.45 4.93-12.1 2-21.5-1.08-3.5-1.98-6.92-1.99-7.62 0-.71 2.33.48 5.2 2.64 7.32 5.52 16.96 10.2 22.42 10.8 4.05.48 5.08.2 7.8-2.1 3.38-2.87 7.2-11.7 7.2-16.6 0-1.63.44-2.96.96-2.96 1.29 0 2.32 6.08 1.86 10.9l-.38 3.99 2.75-2.66c1.52-1.46 3.65-4.94 4.76-7.72l2-5.06-.32 8.53c-.3 7.72-.77 9.48-4.98 18.6-2.85 6.14-4.65 11.4-4.65 13.6 0 1.99 1.34 6.99 2.97 11.1 6.98 17.6 8.83 44.7 4.47 65.1-3.3 15.4-3.27 20.5.16 24.6 2.16 2.59 2.48 3.63 1.73 5.72-1.38 3.9-5.32 6.27-12.6 7.52-5.96 1.03-7.28.92-13.39-1.06-8.62-2.8-10.61-2.76-16.27.3-4.32 2.31-5.6 2.48-17.85 2.4-7.74-.05-15.18-.64-18.06-1.44zm59.12-117c.85-.69 2.07-2.15 2.72-3.25 1.1-1.9 1.13-1.89.55.25-.91 3.36 1.21 2.74 3.07-.91 2.3-4.47 5.48-14.1 4.87-14.7-.27-.28-1.73.66-3.22 2.1a16.27 16.27 0 01-11.8 4.74H171l.48 4.97c.68 7.16 3.27 9.7 6.9 6.78zm-1.67-45.1c-10.02-4.75-12.4-11.4-5.45-14.8 4.53-2.23 16.66-4.31 20.13-3.43 2.38.6 2.71 1.16 2.71 4.7 0 6.88-6.15 16-10.81 15.9-.88 0-3.84-1.07-6.57-2.37zm-33.83-5.87c1.18-1.82 1.24-3.04.34-6.42-2.07-7.75 2.7-9.47 12.5-4.5l5.56 2.83-5.23 1.66a31.65 31.65 0 00-9.3 5.17c-4.7 4.06-5.9 4.45-3.84 1.26z" fill="#45352f"/></svg>