<svg version="1.1" id="prefix__prefix__Ebene_1" xmlns="http://www.w3.org/2000/svg" x="0" y="0" viewBox="0 0 161.6 161.6" xml:space="preserve"><path d="M161.6 154.7c0 3.9-3.2 6.9-6.9 6.9H6.9c-3.9 0-6.9-3.2-6.9-6.9V6.9C0 3 3.2 0 6.9 0h147.8c3.9 0 6.9 3.2 6.9 6.9v147.8z" fill="#f08705"/><path d="M161.6 154.7c0 3.9-3.2 6.9-6.9 6.9H55.3l-32.2-32.7 20-32.7 59.4-73.8 58.9 60.7.2 71.6z" fill="#df6c0c"/><path d="M132.7 90.3h-17l-18-30.6c4-.8 7-4.4 7-8.6V28c0-4.9-3.9-8.8-8.8-8.8h-30c-4.9 0-8.8 3.9-8.8 8.8v23.1c0 4.3 3 7.8 6.9 8.6L46 90.4H29c-4.9 0-8.8 3.9-8.8 8.8v23.1c0 4.9 3.9 8.8 8.8 8.8h30c4.9 0 8.8-3.9 8.8-8.8V99.2c0-4.9-3.9-8.8-8.8-8.8h-2.9L73.9 60h13.9l17.9 30.4h-3c-4.9 0-8.8 3.9-8.8 8.8v23.1c0 4.9 3.9 8.8 8.8 8.8h30c4.9 0 8.8-3.9 8.8-8.8V99.2c0-4.9-3.9-8.9-8.8-8.9z" fill="#fff"/></svg>