<svg xmlns="http://www.w3.org/2000/svg" viewBox="0 0 92 92"><defs><clipPath id="a"><path d="M0 .11h91.89V92H0zm0 0"/></clipPath></defs><g clip-path="url(#a)"><path d="M90.16 41.97L50.04 1.85a5.92 5.92 0 00-8.38 0l-8.32 8.33L43.9 20.75a7.03 7.03 0 017.23 1.68 7.03 7.03 0 011.67 7.28L63 39.89a7.03 7.03 0 017.28 1.67 7.04 7.04 0 010 9.96 7.05 7.05 0 01-9.97 0 7.04 7.04 0 01-1.53-7.66l-9.5-9.5v25a7.04 7.04 0 011.86 11.29 7.04 7.04 0 01-9.95 0 7.04 7.04 0 010-9.96 7.06 7.06 0 012.3-1.54V33.93a7.05 7.05 0 01-3.82-9.24L29.24 14.27 1.73 41.77a5.92 5.92 0 000 8.38l40.12 40.12a5.92 5.92 0 008.37 0l39.94-39.93a5.92 5.92 0 000-8.38" fill="#f03c2e"/></g></svg>