<svg class="prefix__prefix__icon" viewBox="0 0 1024 1024" xmlns="http://www.w3.org/2000/svg"><path d="M512 1024C229.22 1024 0 794.78 0 512S229.22 0 512 0s512 229.22 512 512-229.22 512-512 512zm259.15-568.88H480.4a25.3 25.3 0 00-25.3 25.29l-.02 63.2a25.3 25.3 0 0025.27 25.3h177.02a25.28 25.28 0 0125.3 25.27v12.64a75.85 75.85 0 01-75.86 75.85H366.6a25.3 25.3 0 01-25.26-25.29V417.2a75.85 75.85 0 0175.82-75.85H771.1a25.3 25.3 0 0025.26-25.3l.08-63.2a25.3 25.3 0 00-25.27-25.3H417.15A189.62 189.62 0 00227.53 417.2v353.95a25.28 25.28 0 0025.3 25.3h372.94a170.65 170.65 0 00170.65-170.66V480.4a25.3 25.3 0 00-25.3-25.27z"/></svg>