<svg xmlns="http://www.w3.org/2000/svg" viewBox="0 0 48 48"><path fill="#ffcc80" d="M35.55 42.43l-3.19-3.18-2.12 2.12 3.19 3.18a1.5 1.5 0 102.12-2.12zm3-18l-3.19-3.18-2.12 2.12 3.19 3.18a1.5 1.5 0 102.12-2.12zm-25.87 18l3.18-3.18L18 41.37l-3.19 3.18a1.5 1.5 0 11-2.12-2.12zm-3.25-18l3.18-3.18 2.13 2.12-3.19 3.18a1.5 1.5 0 11-2.12-2.12z"/><path fill="#4dd0e1" d="M38 8c0-1.93-1.15-3-3.23-3S31 7.57 31 9.5c0 1 1.92 1.5 3 1.5 2.08 0 4-1.07 4-3zM10 8c0-1.93 1.15-3 3.23-3S17 7.57 17 9.5c0 1-1.92 1.5-3 1.5-2.08 0-4-1.07-4-3z"/><path fill="#424242" d="M35 7a1 1 0 100 2 1 1 0 100-2zM13 7a1 1 0 100 2 1 1 0 100-2z"/><path fill="#4dd0e1" d="M37 34c0 4.77-3.22 10-13.31 10C15.57 44 11 38.77 11 34c0-5 1-5.8 1-10V14c0-4.77 3.08-11 11.69-11S36 7 36 13c0 3-.24 5.45 0 10 .19 3.56 1 8 1 11z"/><path fill="#f5f5f5" d="M29 6a4 4 0 100 8 4 4 0 100-8zM19 6a4 4 0 100 8 4 4 0 100-8z"/><path fill="#eee" d="M24 20a1 1 0 002 0v-3h-2v3zm-2 0a1 1 0 002 0v-3h-2v3z"/><path fill="#ffcc80" d="M26.5 18c-.41 0-.65-.09-1.01-.2a4.68 4.68 0 00-3 0c-.35.12-.58.2-.99.2-1.33 0-1.5-1-1.5-1.5 0-1.5 1.5-2.5 3-2.5h2c1.5 0 3 1 3 2.5 0 .5-.17 1.5-1.5 1.5z"/><path fill="#424242" d="M27 9a1 1 0 100 2 1 1 0 100-2zM17 9a1 1 0 100 2 1 1 0 100-2zm7 4a2 1 0 100 2 2 1 0 100-2z"/></svg>