<svg xmlns="http://www.w3.org/2000/svg" fill="none" viewBox="0 0 64 64"><defs><linearGradient id="a" x1="-.39" x2="24.39" y1="7.67" y2="61.13" gradientUnits="userSpaceOnUse"><stop offset=".1" stop-color="#FC801D"/><stop offset=".59" stop-color="#FE2857"/></linearGradient><linearGradient id="b" x1="4.33" x2="62.92" y1="59.93" y2="1.34" gradientUnits="userSpaceOnUse"><stop offset=".21" stop-color="#FE2857"/><stop offset=".7" stop-color="#007EFF"/></linearGradient></defs><path fill="#FF8100" d="M16.45 6H4.19a4.13 4.13 0 00-4.12 4.19l.17 11.04a4.13 4.13 0 001.44 3.07L39.84 57c.75.65 1.7 1 2.69 1h11.35A4.13 4.13 0 0058 53.87v-11c0-1.19-.51-2.32-1.41-3.1L19.17 7.02A4.12 4.12 0 0016.45 6z"/><path fill="url(#a)" d="M14.99 6H4.12A4.13 4.13 0 000 10.13v12.56c0 .2.01.4.04.6L5.5 60.47A4.13 4.13 0 009.57 64h15.4a4.13 4.13 0 004.13-4.13l-.01-18.5c0-.43-.07-.85-.2-1.25L18.91 8.87A4.13 4.13 0 0015 6z"/><path fill="url(#b)" d="M59.88 0H25.75a4.13 4.13 0 00-3.8 2.52L6.15 39.94a4.12 4.12 0 00-.32 1.64l.15 18.33A4.13 4.13 0 0010.1 64h17.67c.8 0 1.59-.24 2.26-.68l32.11-21.1A4.12 4.12 0 0064 38.76V4.12A4.13 4.13 0 0059.88 0z"/><path fill="#000" d="M52 12H12v40h40V12z"/><path fill="#fff" d="M33 44H17v3h16v-3zM17 29.38h2.98v-9.77H17v-2.62h8.84v2.62h-2.98v9.77h2.98V32H17v-2.62zm10.64-.08h2.16a2.38 2.38 0 001.16-.28c.34-.19.6-.45.79-.79.18-.34.28-.73.28-1.16V16.99h2.92v10.28c0 .9-.2 1.71-.62 2.43a4.45 4.45 0 01-1.71 1.69c-.73.4-1.55.6-2.46.6h-2.52v-2.7z"/></svg>