<svg viewBox="0 -186.5 512 512" xmlns="http://www.w3.org/2000/svg" preserveAspectRatio="xMidYMid"><defs><linearGradient x1="20.68%" y1="63.56%" x2="146.24%" y2="19.88%" id="a"><stop stop-color="#F69923" offset="0%"/><stop stop-color="#F79A23" offset="31.23%"/><stop stop-color="#E97826" offset="83.83%"/></linearGradient><linearGradient x1="21.16%" y1="394.97%" x2="52.69%" y2="13.74%" id="b"><stop stop-color="#9E2064" offset="32.33%"/><stop stop-color="#C92037" offset="63.02%"/><stop stop-color="#CD2335" offset="75.14%"/><stop stop-color="#E97826" offset="100%"/></linearGradient><linearGradient x1="34.91%" y1="192.31%" x2="66.1%" y2="-136.28%" id="c"><stop stop-color="#282662" offset="0%"/><stop stop-color="#662E8D" offset="9.55%"/><stop stop-color="#9F2064" offset="78.82%"/><stop stop-color="#CD2032" offset="94.87%"/></linearGradient><linearGradient x1="30.24%" y1="170.5%" x2="64.69%" y2="-44.4%" id="d"><stop stop-color="#9E2064" offset="32.33%"/><stop stop-color="#C92037" offset="63.02%"/><stop stop-color="#CD2335" offset="75.14%"/><stop stop-color="#E97826" offset="100%"/></linearGradient><linearGradient x1="31.53%" y1="77.31%" x2="81.08%" y2="-41.42%" id="e"><stop stop-color="#282662" offset="0%"/><stop stop-color="#662E8D" offset="9.55%"/><stop stop-color="#9F2064" offset="78.82%"/><stop stop-color="#CD2032" offset="94.87%"/></linearGradient><linearGradient x1="39.84%" y1="187.68%" x2="57.3%" y2="-51.03%" id="f"><stop stop-color="#9E2064" offset="32.33%"/><stop stop-color="#C92037" offset="63.02%"/><stop stop-color="#CD2335" offset="75.14%"/><stop stop-color="#E97826" offset="100%"/></linearGradient><linearGradient x1="22.3%" y1="465.8%" x2="52.55%" y2="17.07%" id="g"><stop stop-color="#9E2064" offset="32.33%"/><stop stop-color="#C92037" offset="63.02%"/><stop stop-color="#CD2335" offset="75.14%"/><stop stop-color="#E97826" offset="100%"/></linearGradient><linearGradient x1="16.63%" y1="60.31%" x2="159.53%" y2="27.1%" id="h"><stop stop-color="#F69923" offset="0%"/><stop stop-color="#F79A23" offset="31.23%"/><stop stop-color="#E97826" offset="83.83%"/></linearGradient><linearGradient x1="-85.42%" y1="394.97%" x2="62.65%" y2="13.74%" id="i"><stop stop-color="#9E2064" offset="32.33%"/><stop stop-color="#C92037" offset="63.02%"/><stop stop-color="#CD2335" offset="75.14%"/><stop stop-color="#E97826" offset="100%"/></linearGradient><linearGradient x1="-20.62%" y1="129.23%" x2="125.36%" y2="-53.71%" id="j"><stop stop-color="#282662" offset="0%"/><stop stop-color="#662E8D" offset="9.55%"/><stop stop-color="#9F2064" offset="78.82%"/><stop stop-color="#CD2032" offset="94.87%"/></linearGradient><linearGradient x1="9.22%" y1="170.5%" x2="80.31%" y2="-44.4%" id="k"><stop stop-color="#9E2064" offset="32.33%"/><stop stop-color="#C92037" offset="63.02%"/><stop stop-color="#CD2335" offset="75.14%"/><stop stop-color="#E97826" offset="100%"/></linearGradient><linearGradient x1="37.05%" y1="77.31%" x2="71.79%" y2="-41.42%" id="l"><stop stop-color="#282662" offset="0%"/><stop stop-color="#662E8D" offset="9.55%"/><stop stop-color="#9F2064" offset="78.82%"/><stop stop-color="#CD2032" offset="94.87%"/></linearGradient><linearGradient x1="-34.74%" y1="181.58%" x2="110.89%" y2="-46.55%" id="m"><stop stop-color="#9E2064" offset="32.33%"/><stop stop-color="#C92037" offset="63.02%"/><stop stop-color="#CD2335" offset="75.14%"/><stop stop-color="#E97826" offset="100%"/></linearGradient><linearGradient x1="-129.86%" y1="266.45%" x2="66.58%" y2="32.86%" id="n"><stop stop-color="#9E2064" offset="32.33%"/><stop stop-color="#C92037" offset="63.02%"/><stop stop-color="#CD2335" offset="75.14%"/><stop stop-color="#E97826" offset="100%"/></linearGradient></defs><g fill="none"><path d="M1.78 2.14c-.18.44-.36 1-.52 1.7l-.12.53-.12.57-.1.62-.11.66-.1.7-.1.74-.08.77-.09.81-.03.42-.08.86-.06.9-.06.92a99.87 99.87 0 00-.02.47l5.73 2.78a73.4 73.4 0 01.32-9.42l.06-.52-.04.47-.05.79-.02.37-.03.86-.01.48-.01 1.07v.9l.01.98.02.7.04 1.12.03.8.04.83.03.43a73.3 73.3 0 003.67-3.26l.9-.85.45-.43.9-.88.88-.87.86-.88.83-.85a17.95 17.95 0 00-2.83-4.26l-.3-.32a12.57 12.57 0 00-.59-.57l-.28-.24-.27-.22-.26-.2-.25-.18-.24-.16-.33-.2-.29-.16-.32-.16-.24-.1-.44-.17-.33-.1L7.52.3 7.28.24 7.02.18a9.5 9.5 0 00-.14-.03L6.6.1 6.3.06c-1.6-.2-3.64.01-4.52 2.08z" fill="url(#a)" transform="translate(250.16 25.43)"/><path d="M267.08 96.87l-.8-2.91-.7-2.59-.3-1.14-.58-2.25-.56-2.2-.56-2.26-.27-1.12-.52-2.18-.53-2.24a250.6 250.6 0 01-.72-3.25l-.46-2.13-.22-1.04-.3-1.5-.68-3.49-.15-.78-.3-1.53-.09-.5-.06-.37-.28.25-.57-.29.04.19.4 2.3.46 2.5.13.69c.26 1.4.54 2.8.83 4.2l.3 1.4a315.65 315.65 0 002.54 11.14l.9 3.61.46 1.8a263.3 263.3 0 001.81 6.74l.6 2.18.6 2.13.93.46.3-.27-.03-.12a119.9 119.9 0 01-1.62-5.43z"/><path d="M7.42 32.52a284.93 284.93 0 01-.72-5.63 127 127 0 01-.44-4.54l-.1-1.34a1.68 1.68 0 010-.1 117.15 117.15 0 01-.27-5.32L.18 12.83l-.02.35-.03.73A129.1 129.1 0 000 18.25a217.03 217.03 0 00.04 5.42 193.7 193.7 0 00.44 8.96l.1 1.4 7.66 3.88-.27-1.81-.55-3.59z" fill="url(#b)" transform="translate(250.16 25.43)"/><path d="M18.5 77l.12.4.76 2.59.33 1.1.36 1.18.13.42.07.2 1.23 3.96c1.1-.23 2.43.18 3.83.8l.57.25a6.28 6.28 0 00-4.18-2.27c4.69-3.13 7.77-7.16 7.34-11.97a16.48 16.48 0 00-.19-1.3c-.07 1.76-.78 3.07-2.83 4.46l-.25.16c2.12-3.73 2.7-6.26 2.45-9.53a31.23 31.23 0 00-.3-2.49 12.28 12.28 0 01-7.12 9.9l-2.32 2.13z" fill="url(#c)" transform="translate(250.16 25.43)"/><path d="M15.75 71.27l-.48-1.82-.98-3.7a360.71 360.71 0 01-1.36-5.4 364.67 364.67 0 01-2.55-11.15L10 47.34l-.74-3.73a80.41 80.41 0 01-.37-2.03 231.58 231.58 0 01-.61-3.46l-.05-.2-7.61-3.88.02.24v.13c.16 1.72.31 3.47.51 5.23a157.77 157.77 0 001.42 9.97l.16.91A106.95 106.95 0 005.3 61.4c.33 1.11.66 2.18.99 3.2l.3.85.6 1.7a76.63 76.63 0 002.41 5.77l7.7 3.9c-.41-1.42-.8-2.85-1.21-4.31l-.21-.82-.12-.42z" fill="url(#d)" transform="translate(250.16 25.43)"/><path d="M9.7 73.17a60.86 60.86 0 003.06 5.76l.62 1a8.8 8.8 0 00-2.55-.5l-.44-.03a17.92 17.92 0 00-.22-.01l-.43-.01h-.6l-.54.02-.45.02-.63.05H7.5c3.9 1.35 7.3 3 9.46 5.51-.86.94-2.46 1.66-4.47 2.24 1.5.17 2.64.1 3.46-.03l.33-.07a7.6 7.6 0 00.16-.03l.27-.07.24-.07.3-.1.14-.06c-1.24 1.03-2.01 2.79-2.65 4.76l-.23.7-.1.36c1.63-2.68 3.26-4.45 4.84-5.13a506.6 506.6 0 006.05 18.6l1.05 3.02a830.48 830.48 0 001.08 3.06c.52-.68.58-1.42.36-2.18l-.72-2.02-.82-2.37-1.26-3.75-1.04-3.15-1.14-3.55-1.1-3.47-1-3.25-.74-2.43-.6-2-.24-.8-.22-.75-.65-2.25-.66-2.3-.3-1.07v-.01l-7.7-3.9.05.18.04.08z" fill="url(#e)" transform="translate(250.16 25.43)"/><path d="M9.13 38.08l.14.75.29 1.53.83 4.28.3 1.48.45 2.1.23 1.08.73 3.25.52 2.24.52 2.18.27 1.12.56 2.26.56 2.2a311.56 311.56 0 001.58 5.97l.8 2.92.6 2.14.63 2.19.32 1.1a.27.27 0 00.04.12l2.32-2.14-.05.03-.13.06c2.76-2.6 5.12-7.82 5.66-12.52.25-2.16.22-4.47-.07-6.98-.22-1.87-.6-3.84-1.12-5.97a76.63 76.63 0 00-1.71-5.85c-.43.87-1.03 1.72-1.77 2.55l-.4.44-.14.15-.3.3c2.04-3.17 2.28-6.56 1.67-10.08a12.68 12.68 0 01-2.3 3.98 8.43 8.43 0 01-.5.55l-.1.08-.06.05a14.2 14.2 0 001.62-3.73l.05-.23c.08-.35.14-.7.2-1.05l.07-.69c.03-.4.04-.82.02-1.24l-.06-.77a2.18 2.18 0 00-.02-.17l-.08-.5a6.45 6.45 0 00-.04-.23c-.16-.92-.33-1.74-.51-2.47l-.17-.65-.15-.56-.2-.65-.25-.76a6.73 6.73 0 00-.08-.22l-.16-.39a8.9 8.9 0 00-.14-.32l-.12-.26a2.32 2.32 0 01-.1.3l-.07.16a15.06 15.06 0 01-2.61 3.75c-.02.01-.03.02-.04.05l-.2.21a2.48 2.48 0 00-.11.12l.04-.08-7.32 6.7c.06.05.07.1.07.12z" fill="url(#f)" transform="translate(250.16 25.43)"/><path d="M6.3 15.45l.11 1.67.09 1.19.05.61.1 1.28.07.65.01.22a.78.78 0 00.02.1l.21 2.01.16 1.42.18 1.47.3 2.3c.15 1.04.3 2.12.48 3.25l.13.85.43 2.68.48 2.82 7.32-6.7c1.52-2.76 1.86-4.48 1.84-6.62l-.06-1.34-.03-.46a57.57 57.57 0 00-.66-5.77c-.3-1.86-.67-3.65-1.09-5.17a27.43 27.43 0 00-.84-2.63 29.79 29.79 0 00-.8-1.82l-.83.84-.43.43-.87.88-.9.87-.9.86-.44.43-.89.83a69.97 69.97 0 01-3.23 2.85z" fill="url(#g)" transform="translate(250.16 25.43)"/><path d="M212.12 30.79c4.06.44 7.63 1.26 10.7 2.47a20.42 20.42 0 017.74 4.94 14.33 14.33 0 014.11 7.73c.34 1.87.34 4.01 0 6.42a95.86 95.86 0 01-1.31 7.41l-7.41 36.72c-.33 2.08-.71 4.22-1.15 6.42-.44 2.08-.6 4-.5 5.76 0 .33-.05.71-.16 1.15v.99c0 1.2-.11 2.42-.33 3.62a3.08 3.08 0 01-2.14 2.47 6.2 6.2 0 01-2.47.5h-14.5a3.28 3.28 0 01-1.97-.83 3.15 3.15 0 01-1.32-1.8c-.22-.89-.6-1.6-1.15-2.15a2.07 2.07 0 00-.83-.5c-.22-.21-.6-.27-1.15-.16a9.1 9.1 0 00-1.81.83c-.55.33-1.1.6-1.65.82-.65.44-1.37.82-2.14 1.15-.65.33-1.37.66-2.14.99a34.99 34.99 0 01-4.77 1.65 80.22 80.22 0 00-4.94 1.15c-.88.22-1.7.33-2.47.33l-2.14.33h-.99a3.1 3.1 0 01-.99.16h-1.8a8.31 8.31 0 01-3.3 0h-1.48a8.36 8.36 0 00-2.3-.33 4.05 4.05 0 01-1.98-.16l-2.97-.66a6.76 6.76 0 01-2.63-.82 21.64 21.64 0 01-7.24-4.61 15.58 15.58 0 01-3.79-7.74 16.38 16.38 0 01-.5-2.47c0-.88-.05-1.81-.16-2.8a4.16 4.16 0 010-1.65c.22-.55.33-1.1.33-1.64 0-.33.06-1 .17-1.98.22-1.1.43-1.87.65-2.3.44-1.1.72-2.03.83-2.8l1.64-3.62a27.98 27.98 0 019.88-10.7 44.63 44.63 0 0110.2-4.29 23.62 23.62 0 014.62-1.15 87.4 87.4 0 004.77-.82c.88-.22 1.81-.33 2.8-.33a26.6 26.6 0 003.13-.5 5.48 5.48 0 012.3-.16c.77 0 1.65-.11 2.64-.33a8.36 8.36 0 012.3-.33c.77 0 1.6-.1 2.47-.33 2.42-.55 4.61-.99 6.59-1.32a13.76 13.76 0 005.93-2.96c1.1-.99 1.97-2.08 2.63-3.3.11-.32.17-.6.17-.81 0-.22.05-.44.16-.66.22-.22.33-.55.33-.99.1-.44.22-.77.33-.99v-2.47c-.44-3.3-2.3-5.54-5.6-6.75-.88-.33-2.03-.55-3.46-.66a17.02 17.02 0 00-4.11-.16c-1.43 0-2.86.1-4.28.33-1.32.22-2.47.5-3.46.82a7.6 7.6 0 00-2.14.99 14.43 14.43 0 00-4.12 2.96 8.64 8.64 0 00-1.64 2.14 35.89 35.89 0 00-1.98 3.13 4.17 4.17 0 01-2.8 1.98c-.88.22-1.8.33-2.8.33h-9.22c-.54 0-1.15.05-1.8.16-.56 0-1-.05-1.32-.16h-1.49a1.81 1.81 0 00-.82-.17 1.12 1.12 0 01-.82-.33c-.77-.22-1.21-.93-1.32-2.14 0-.55.11-1.1.33-1.65.22-.54.44-1.04.66-1.48a45.96 45.96 0 011.64-3.29 34.7 34.7 0 011.98-2.96l1.32-1.65 1.31-1.65c1.1-1.2 2.42-2.36 3.96-3.45.33-.11.7-.39 1.15-.83a37.13 37.13 0 001.64-1.15 26.7 26.7 0 011.82-.99 30 30 0 016.42-2.8c2.3-.76 4.6-1.48 6.91-2.14a28.86 28.86 0 014.28-.65 33.6 33.6 0 004.45-.66c.44-.11 1.1-.11 1.97 0 .88.1 1.48.05 1.81-.17 4.5-.1 8.73.06 12.68.5zm183.03 1.31a32.95 32.95 0 019.72 5.27 16.2 16.2 0 012.47 2.3c.88.78 1.59 1.6 2.14 2.48.22.55.6.98 1.15 1.31a23.23 23.23 0 011.65 3.8 114.3 114.3 0 001.8 3.78c.34.98.56 2.03.67 3.13.22.98.44 2.08.66 3.29.22 1.42.33 2.9.33 4.44l.32 4.61c0 .88-.16 1.87-.5 2.97a8.16 8.16 0 00-.16 2.8l-.33 1.8a8.1 8.1 0 01-.65 2.97c-.44 1.1-1 1.81-1.65 2.14-.55.44-1.37.77-2.47.99-1.1.1-2.3.22-3.62.33h-3.79a36.65 36.65 0 00-3.29-.17h-42.48a4.84 4.84 0 00-1.8.33 5 5 0 00-1.98 1.32c-.22.22-.55.66-1 1.32-.32.54-.48 1.1-.48 1.64.1.66.1 1.32 0 1.98 0 .55.05 1.15.16 1.8.33 2.64.93 4.84 1.81 6.6a14.9 14.9 0 004.28 4.44 7.24 7.24 0 002.47 1.15c.99.11 1.92.33 2.8.66a21.45 21.45 0 007.57.33h1.48c1.1-.22 2.14-.44 3.13-.66l2.97-.99c1.2-.55 2.58-1.26 4.11-2.14a17.22 17.22 0 003.62-2.63 19.7 19.7 0 012.14-2.14 6.97 6.97 0 012.47-1.65 8.82 8.82 0 014.28-.66h6.75a3.82 3.82 0 011.98.17h1.65c.98.22 1.7.5 2.14.82.33.22.44.71.33 1.48 0 .77-.17 1.43-.5 1.98a29.8 29.8 0 01-2.8 4.11 42.98 42.98 0 01-2.96 3.63 42.8 42.8 0 01-9.88 8.72 54.38 54.38 0 01-12.68 5.6 16.7 16.7 0 01-3.78.82 29.61 29.61 0 00-3.95.66 3.4 3.4 0 01-1.49 0 5.4 5.4 0 00-1.31.17h-1.81a4.05 4.05 0 01-1.98.16 9.25 9.25 0 01-1.8-.16 8.05 8.05 0 00-2.31 0c-.66.1-1.38.05-2.14-.17a4.83 4.83 0 00-1.82-.33c-.65 0-1.2-.1-1.64-.33a42.99 42.99 0 01-3.62-.82 8.79 8.79 0 01-2.97-1.15 56.9 56.9 0 00-3.13-1.16 15 15 0 01-2.63-1.48 37.06 37.06 0 01-7.9-7.57 30.94 30.94 0 01-4.61-10.2 20.96 20.96 0 01-.66-3.63 16.2 16.2 0 00-.5-3.95v-1.15a5.4 5.4 0 00.17-1.32 27.82 27.82 0 010-4.28l.66-4.61a9.25 9.25 0 00.16-1.81 8.7 8.7 0 01.5-1.81l.5-1.98 1.3-3.95a183.6 183.6 0 002.15-5.43 25.96 25.96 0 012.47-4.94c7.02-11.42 16.68-19.48 28.97-24.2a20.6 20.6 0 014.94-1.32 162.78 162.78 0 005.27-1.15c.88-.11 1.7-.17 2.47-.17.77 0 1.6-.05 2.47-.16 5.6-.11 10.26.55 14 1.97zM54.2 0c1.87 0 3.19.38 3.95 1.15a3.52 3.52 0 011.16 2.47c.1.99.27 1.98.49 2.96l.66 5.44a79.94 79.94 0 01.82 5.43 324.5 324.5 0 012.97 21.08 449.55 449.55 0 003.12 21.23c.44 2.2.77 4.45 1 6.75.21 2.3.54 4.56.98 6.75l.33 1.65c.1.55.38.99.82 1.32.22.1.39.22.5.33.22.1.49.05.82-.17.88-.22 1.59-.88 2.14-1.97a35.89 35.89 0 011.64-2.97 482.88 482.88 0 003.8-7.4 125 125 0 013.94-7.58l10.54-20.09c3.62-6.8 7.19-13.6 10.7-20.41a218.4 218.4 0 012.64-5.1c.98-1.76 1.92-3.52 2.8-5.27a31.84 31.84 0 011.48-2.64 6.2 6.2 0 012.3-2.14 4.42 4.42 0 012.64-.82h28.31c1.1 0 1.87.22 2.3.66 1.1.66 1.43 1.92 1 3.79a517.56 517.56 0 00-1 5.43l-4.93 24.7-12.35 61.24-2.8 14.32a42.99 42.99 0 01-.82 3.62 4.5 4.5 0 01-1.65 2.47 5.5 5.5 0 01-2.63 1h-15.64a19.52 19.52 0 00-2.14-.5c-.55-.11-.99-.5-1.32-1.16a3.29 3.29 0 01-.33-2.14c.22-.87.44-1.8.66-2.8l1.65-8.4 8.56-42.3c.22-1.54.44-2.97.66-4.28a59.41 59.41 0 00.82-4.28l.66-2.64c.22-.99.33-1.92.33-2.8a9.3 9.3 0 010-2.47c.22-.87.05-1.42-.5-1.64-.33-.11-.6-.06-.82.16l-.5.5a7.2 7.2 0 00-1.48 1.64l-.98 1.65a210.63 210.63 0 00-2.97 5.1 63.68 63.68 0 01-2.96 5.27l-.99 1.98a8.31 8.31 0 01-.99 1.97 85.64 85.64 0 00-2.47 4.28 40.79 40.79 0 01-2.3 4.28c-.22.33-.38.72-.5 1.16-.1.33-.27.65-.49.98a29.06 29.06 0 00-1.8 3.13 16.37 16.37 0 01-1.82 3.3 29.06 29.06 0 00-1.81 3.12 23.04 23.04 0 01-1.65 3.3 121.16 121.16 0 00-5.43 9.7 403.7 403.7 0 01-5.1 9.56 2.6 2.6 0 00-.66.98c0 .33-.17.66-.5 1a42.2 42.2 0 00-2.14 3.78 29.47 29.47 0 01-1.97 3.62 36.58 36.58 0 01-1.32 2.14 7.2 7.2 0 01-1.48 1.65 5.2 5.2 0 01-1.81.82c-.55 0-1.26.11-2.14.33h-3.8a29 29 0 00-2.8.17h-3.13c-.98 0-1.92-.06-2.8-.17-.87-.1-1.48-.33-1.8-.66a3.75 3.75 0 01-1.49-1.8 14.1 14.1 0 00-.66-2.64 48.55 48.55 0 01-.5-3.95 24.78 24.78 0 00-.65-4.12l-.16-1.48a24.78 24.78 0 01-.66-4.12 25 25 0 00-.66-4.28v-.82c0-.33-.06-.66-.17-.99a14.41 14.41 0 01-.65-3.13 34.06 34.06 0 00-.5-3.29v-.82c0-.33-.05-.6-.16-.83a34.06 34.06 0 01-.5-3.29c0-1.1-.16-2.2-.49-3.3-.44-2.19-.82-4.5-1.15-6.9a73.27 73.27 0 00-1-7.09 193.62 193.62 0 01-1.14-8.4 40.38 40.38 0 00-1.49-8.23c-.22-1.53-.54-2.8-.98-3.78a2.58 2.58 0 00-.66-.5c-.11-.22-.33-.22-.66 0-.66.33-1.1.88-1.32 1.65a9.11 9.11 0 01-.65 2.3 6.57 6.57 0 00-.83 2.48l-.33 2.46a42.99 42.99 0 01-.82 3.63 42.99 42.99 0 01-.82 3.62l-8.73 43.8-1.65 8.06-.66 2.63c-.1.88-.43 1.6-.98 2.14-.55.77-1.48 1.27-2.8 1.49-.77.22-1.6.33-2.47.33a21.22 21.22 0 00-2.63-.17H2.99a3.73 3.73 0 01-2.3-.99c-.55-.55-.77-1.37-.66-2.47l.66-3.62 2.8-14.49 12.34-61.24 4.61-23.05c.11-.66.22-1.43.33-2.3a114.88 114.88 0 011.32-5.27c.33-.88.6-1.54.82-1.98A5.54 5.54 0 0125.87.16c.33-.1.55-.1.66 0 .22 0 .5-.05.83-.16h26.83zm447.69 33.1a17.53 17.53 0 018.56 9.21c.54 1.2.87 2.53.98 3.95.22 1.32.39 2.7.5 4.12.1.88.1 1.7 0 2.47a8.1 8.1 0 000 2.3c-.22.66-.28 1.1-.17 1.32a38.27 38.27 0 01-.66 4.78 356.23 356.23 0 01-.98 4.77l-2.8 14.65-5.44 26.67a558.09 558.09 0 01-1.31 6.1c-.44 1.86-1.48 3.07-3.13 3.62a7.3 7.3 0 01-2.3.33H483.6a31.6 31.6 0 01-3.46-.17 3.1 3.1 0 01-2.14-1.48c-.33-.66-.44-1.48-.33-2.47.22-1.1.44-2.25.66-3.46l2.3-11.52 4.95-24.53c.76-4.06 1.31-7.8 1.64-11.2.44-3.51.06-6.47-1.15-8.89-1.1-2.2-3.02-3.73-5.76-4.6a4.83 4.83 0 00-1.81-.34c-.55 0-1.1-.1-1.65-.33a6.89 6.89 0 00-2.14 0 7.8 7.8 0 00-1.81.17c-.55.1-.99.16-1.32.16-.33 0-.66.06-.99.17a22.9 22.9 0 00-6.58 2.63 20.19 20.19 0 00-8.56 11.03 153.08 153.08 0 00-4.12 16.3l-4.11 20.58-1.98 10.04-.66 2.97a7.3 7.3 0 01-.99 2.47 4.47 4.47 0 01-3.12 2.14c-1.21.22-2.7.33-4.45.33h-8.23c-1.2 0-2.42-.06-3.62-.17-1.21-.1-1.98-.5-2.3-1.15-.67-.99-.78-2.42-.34-4.28.44-1.87.83-3.62 1.16-5.27l4.44-22.39 7.24-36.22 1.82-8.4c.22-1.2.43-2.3.65-3.29a4.44 4.44 0 011.49-2.47c.22-.33.6-.55 1.15-.66a9.39 9.39 0 011.64-.5h.83a8.38 8.38 0 011.64-.16h8.73c.88 0 1.7.06 2.47.17.88 0 1.65.1 2.3.33.66.33 1.05.82 1.16 1.48.22.66.33 1.43.33 2.3 0 .44-.06.83-.17 1.16-.1.33-.1.65 0 .98.11.55.22.88.33 1 .22.1.5.27.82.49 1.1.1 2.14-.28 3.13-1.16.99-.98 1.98-1.75 2.97-2.3a49.7 49.7 0 0110.86-5.27c1.1-.33 2.14-.55 3.13-.66a56.2 56.2 0 003.62-.5c.33-.1.82-.1 1.48 0 .66 0 1.1-.05 1.32-.16 6.59-.22 11.85.72 15.8 2.8zM203.06 77.86c-.44.11-.83.22-1.16.33a7 7 0 00-1.31.17c-.77.22-1.6.38-2.47.5a30.23 30.23 0 00-2.8.48c-.33.11-.83.17-1.48.17a33.5 33.5 0 01-4.45.66c-1.43.1-2.85.38-4.28.82l-2.63.66a9.12 9.12 0 00-2.3.66 19.53 19.53 0 00-6.76 4.44c-1.97 1.98-3.13 4.72-3.46 8.23-.1 1.87.22 3.4 1 4.62a5.6 5.6 0 002.79 2.96c1.43.66 3.02 1.15 4.77 1.48 1.76.33 3.63.44 5.6.33a33.34 33.34 0 005.93-1.15c3.07-.88 5.6-2.25 7.57-4.12a25.67 25.67 0 005.27-7.24c.33-.77.6-1.54.82-2.3.22-.89.55-1.76 1-2.64l.32-1.48a8.72 8.72 0 00.5-1.81c.1-.77.16-1.43.16-1.98 0-.66.05-1.26.16-1.81s-.05-.99-.49-1.32c-.44-.44-1.2-.66-2.3-.66zm174.8-30.46a1.4 1.4 0 01-1.16.17 2.04 2.04 0 00-1.15 0c-.66.22-1.31.38-1.97.5-.66 0-1.26.1-1.81.32a23 23 0 00-13.67 10.87 7.6 7.6 0 00-.99 2.14 6.21 6.21 0 00-.33 1.97c0 .66.28 1.21.83 1.65.77.55 1.92.82 3.45.82h27.5c1.75-.1 2.96-.6 3.62-1.48a4.24 4.24 0 00.99-3.95l-.5-3.62a12.91 12.91 0 00-4.77-6.75c-2.2-1.65-5.54-2.53-10.04-2.64z" fill="#000"/><path d="M66.76.32c-.24.1-.5.21-.77.36l-.42.23a20.89 20.89 0 00-.94.58l-.51.34-.54.37-.56.4-.59.45-.3.23-.62.48-.64.52-.66.54-.68.58-.7.6-.72.64-.74.66-.38.34 2.41 6.79a83.1 83.1 0 017.8-7.38l.91-.73.07-.05-.63.5-.6.54-.67.6-.62.58-.53.5-.38.38-.82.82-.67.69-.97 1.02-.51.55-.53.58-.84.93-.59.66c.6.06 1.26.11 1.96.15l1.08.06 1.13.05 1.18.03 1.2.03 1.23.02h2.46l1.2-.01.6-.01 1.18-.02a19.07 19.07 0 001.1-6.88l-.03-.44-.03-.4-.03-.2-.05-.37-.06-.34-.03-.16-.06-.3-.07-.28-.07-.24-.07-.22-.13-.36-.1-.25-.25-.52L73 3.7l-.12-.22-.14-.23-.16-.26-.18-.26-.2-.28C71.11.96 69.23-.7 66.76.32z" fill="url(#h)" transform="translate(260.14 28.7)"/><path d="M283.01 98.65l1.01-1.83 1.37-2.44 1.2-2.13.6-1.05 1.32-2.3 1.3-2.24.65-1.1a452.87 452.87 0 012.02-3.38L293.8 80a327.9 327.9 0 013.35-5.4l1.33-2.08.65-1.02.94-1.44 1.13-1.7 1.1-1.65.5-.75.98-1.47.17-.24.31-.46.09-.12-.42-.02-.24-.68-.11.18c-.51.71-1.02 1.44-1.52 2.17l-1.61 2.39-.44.64a257.07 257.07 0 00-2.66 4.04l-.88 1.37a352.92 352.92 0 00-3.48 5.53 256.28 256.28 0 00-3.32 5.46 450.26 450.26 0 00-2.15 3.62l-1.05 1.81a306.15 306.15 0 00-3.21 5.61 31 31 0 00-.7 1.26 332.46 332.46 0 00-2.45 4.43l.37 1.1.46.02a113.57 113.57 0 012.07-3.95z"/><path d="M47.16 29.25a226.18 226.18 0 017.96-10.08l.24-.28a132.5 132.5 0 014.03-4.49l-2.42-6.77-.29.27-.61.56a145.72 145.72 0 00-3.55 3.42c-.7.7-1.4 1.4-2.1 2.13l-1.45 1.5-.73.76a221.58 221.58 0 00-4.11 4.5 298.92 298.92 0 00-2.66 3.06l-1.02 1.2 3.08 9.21 1.22-1.67 2.41-3.32z" fill="url(#i)" transform="translate(260.14 28.7)"/><path d="M20.75 73.85l-.46.85-1.21 2.26-.62 1.16-.64 1.23c-.12.23-.24.43-.34.66l-.67 1.3-1.48 2.86c1.2.78 2 2.46 2.7 4.34a7.11 7.11 0 00-1.55-5.15c6.26 1.21 11.94.42 15.41-3.8.3-.38.6-.78.9-1.2-1.48 1.37-3.08 1.86-5.85 1.34l-.32-.06c4.68-1.32 7.16-2.9 9.56-5.73a35.32 35.32 0 001.73-2.24c-4.42 3.38-9.03 3.84-13.6 2.3l-3.56-.12z" fill="url(#j)" transform="translate(260.14 28.7)"/><path d="M22.84 67.5l1.3-2.3 2.15-3.74a407.99 407.99 0 013.2-5.44 670.63 670.63 0 013.32-5.46 288.95 288.95 0 013.48-5.53c1.16-1.8 2.36-3.62 3.53-5.4l1.31-1.93c.74-1.1 1.5-2.18 2.27-3.27l.11-.19-3.04-9.18-.17.22-.1.1a176.25 176.25 0 00-7.48 9.5 306.64 306.64 0 00-3.05 4.26l-.6.87a120.96 120.96 0 00-6.57 10.8 141.17 141.17 0 00-1.74 3.35c-.45.92-.87 1.86-1.3 2.78a86.68 86.68 0 00-2.65 6.56l3.1 9.25.6-1.1 1.23-2.2.62-1.13.48-.83z" fill="url(#k)" transform="translate(260.14 28.7)"/><path d="M16.7 63.79a68.84 68.84 0 00-2.11 7.06l-.3 1.3a8.87 8.87 0 00-1.23-1.94l-.31-.37a17.15 17.15 0 00-.16-.18l-.32-.35-.32-.34-.31-.32-.45-.43-.41-.38-.45-.39-.4-.33c2.06 4.18 3.49 8.22 3.23 11.95-1.43.08-3.3-.62-5.38-1.75.9 1.1 1.72 1.88 2.42 2.42l.31.24.15.1.28.2.26.15.24.14.21.1.2.1.15.07.08.03c-1.75-.15-3.69.59-5.69 1.6l-.67.35-.67.36c3.45-.86 6.16-1 7.97-.28a448.6 448.6 0 00-2.68 5.17l-1.36 2.67a667.1 667.1 0 00-6.19 12.62l-1.4 2.93A944.65 944.65 0 000 109.26c.95-.13 1.6-.68 2.02-1.46l1.58-3.35 1.45-3 1.85-3.79 1.64-3.28 1.63-3.21 1.54-3.01 2.14-4.12 1.52-2.88.53-.98.45-.83.4-.78.63-1.15 1.28-2.36.66-1.2.6-1.09v-.02l-3.1-9.25a1.42 1.42 0 00-.09.19l-.03.1z" fill="url(#l)" transform="translate(260.14 28.7)"/><path d="M44.12 35.09l-.48.7c-.32.5-.66.98-1 1.47l-1.58 2.4-1.13 1.7-.3.45c-.42.66-.85 1.33-1.3 2l-1.32 2.09a304.26 304.26 0 00-2.67 4.29l-.68 1.12a456.85 456.85 0 00-3.34 5.55l-1.3 2.21a354.8 354.8 0 00-3.17 5.53l-1.97 3.52-.6 1.1-1.23 2.23-1.24 2.28a.32.32 0 00-.06.12l3.56.13c-.06-.04-.12-.04-.2-.08 4.28.1 10.32-2.23 14.49-5.58a33.96 33.96 0 005.49-5.68 54.27 54.27 0 003.84-5.7 86.68 86.68 0 003.28-6.06c-1.04.36-2.2.57-3.46.65l-.68.03h-.45l-.24.01c4.15-.93 7.04-3.47 9.35-6.78a14.44 14.44 0 01-5.01 1.38 9.42 9.42 0 01-.85.03h-.23a16 16 0 004.26-1.72l.23-.15c.34-.21.67-.46 1-.7l.6-.49a11 11 0 001.3-1.34l.27-.3.12-.16.33-.46.15-.23a40.14 40.14 0 001.58-2.43l.18-.32c.24-.4.45-.78.63-1.13l.22-.41.33-.67a9.97 9.97 0 00.18-.4l.1-.22.16-.4.13-.34.04-.15c-.1.06-.2.12-.32.17l-.18.07a17.07 17.07 0 01-5.15.96h-.34a2.81 2.81 0 00-.18.01l.1-.03-11.21-.42c0 .09-.02.13-.05.15z" fill="url(#m)" transform="translate(260.14 28.7)"/><path d="M59.82 14.62l-1.24 1.43-.87 1.03-.9 1.08-1.1 1.32a.88.88 0 00-.07.1l-1.92 2.41-1.01 1.3-.52.67-1.45 1.92-.94 1.27c-.48.64-.97 1.3-1.47 2l-.5.7c-.5.68-1 1.4-1.52 2.12l-1.04 1.48L44.2 35l11.21.42c3.43-1.01 5.06-2.13 6.74-3.87a33.98 33.98 0 001.02-1.12l.34-.4a65.11 65.11 0 004.06-5.17 56.43 56.43 0 003.23-5.03 31.02 31.02 0 001.41-2.78c.3-.73.57-1.43.8-2.1l-1.16.01-1.2.02h-2.44l-.62-.01-1.22-.02-1.2-.02-.6-.02-1.15-.04a99.9 99.9 0 01-.56-.03l-1.08-.06a56.81 56.81 0 01-1.96-.15z" fill="url(#n)" transform="translate(260.14 28.7)"/></g></svg>