<svg class="prefix__icon" viewBox="0 0 1024 1024" xmlns="http://www.w3.org/2000/svg"><path d="M218.11 379.3v-5.97c0-23.89 19.12-43.39 42.5-43.39h34c23.34 0 42.46 19.5 42.46 43.4v6.27c0 23.97 5.97 26.24 29.35 26.24h296.02c21.68 0 23.85-3 23.85-22.96v-9.6c0-23.9 19.08-43.4 42.46-43.4h33.06c23.34 0 42.46 19.5 42.46 43.4v7.6c0 21.41 7.12 24.96 27.9 24.96h163.41c22.15.04 28.42-6.1 28.42-27.7v-48.5c0-47.7-38.23-86.8-85-86.8H85c-46.77 0-85 39.09-85 86.84v45.44c0 24.49 7.08 30.76 33.28 30.76h154.37c24.79 0 30.46-2.69 30.46-26.58zm586.2 115v9.2a43.1 43.1 0 01-42.45 43.44h-33.11a43.1 43.1 0 01-42.46-43.43v-8.62c0-18.73-5.29-23.94-24.15-23.94H367.57c-24.15 0-30.42 5.34-30.42 27.01v5.55a43.1 43.1 0 01-42.5 43.43h-34.04a43.1 43.1 0 01-42.5-43.43v-3.46c0-25.38-6.23-29.1-29.35-29.1H32.5C6.66 470.95 0 477.44 0 503.51v433.66C0 984.96 38.23 1024 85 1024h854c46.77 0 85-39.04 85-86.83V496.98c0-19.5-8.15-25.98-26.11-25.98H833.37c-22.87-.04-29.06 3.92-29.06 23.3z" fill="#d4237a"/><path d="M309.85 466.94c0 23.39-14.3 42.5-31.75 42.5s-31.74-19.11-31.74-42.5v-52.18c0-23.42 14.3-42.54 31.74-42.54s31.74 19.12 31.74 42.54v52.18zm467.67 0c0 23.39-14.26 42.5-31.7 42.5s-31.75-19.11-31.75-42.5v-52.18c0-23.42 14.3-42.54 31.74-42.54s31.7 19.12 31.7 42.54v52.18zM333.6 197.46c27.26-73.77 97.07-126.3 178.86-126.3s151.6 52.49 178.81 126.3c0 0 5.76 24.32 39.51 24.32 33.71 0 33.63-24.32 33.63-24.32C734.72 83.76 633.17 0 512.47 0 391.72 0 290.22 83.75 260.48 197.46c0 0-1.83 21.3 32.98 21.3 34.86 0 40.15-21.3 40.15-21.3z" fill="#d4237a"/></svg>