<svg xmlns="http://www.w3.org/2000/svg" preserveAspectRatio="xMidYMid" viewBox="0 0 256 256"><path d="M128 0c70.7 0 128 57.3 128 128s-57.3 128-128 128C57.31 256 0 198.7 0 128S57.3 0 128 0" fill="#E95420"/><path d="M205.15 138.77a34.08 34.08 0 00-4.76.5l-21.54-42.83a19.6 19.6 0 10-27.56-2.77v.01c.71.96 1.56 1.8 2.51 2.5l-21.54 42.84a18.3 18.3 0 00-9.02 0l-21.29-42.58a19.59 19.59 0 10-27.57-2.77 28.9 28.9 0 002.77 2.77l-21.79 42.83a17.34 17.34 0 00-5.01-.75 19.66 19.66 0 1019.54 19.79 19.52 19.52 0 00-7.01-15.03l21.79-43.08c1.57.3 3.16.47 4.76.5a27.8 27.8 0 004.5-.5l21.3 42.58a19.59 19.59 0 1027.56 2.77l-.01-.02a14.4 14.4 0 00-2.75-2.75l21.56-42.84c1.55.42 3.16.59 4.76.5a27.88 27.88 0 004.51-.5l21.54 42.6a19.56 19.56 0 1027.56 2.5 20.6 20.6 0 00-14.8-6.27" fill="#FFF"/></svg>