<svg class="prefix__icon" viewBox="0 0 1121 1024" xmlns="http://www.w3.org/2000/svg" width="200" height="200"><path d="M1079.167 631.554H42.67a18.287 18.287 0 01-18.287-18.288v173.242a18.287 18.287 0 0018.287 18.288h1036.497a18.287 18.287 0 0018.287-18.288V613.266a18.287 18.287 0 01-18.287 18.288z" fill="#d4237a"/><path d="M1079.167 829.179H42.67A42.67 42.67 0 010 786.509V42.67A42.67 42.67 0 0142.67 0h1036.497a42.67 42.67 0 0142.67 42.67v743.838a42.67 42.67 0 01-42.67 42.67zm-1030.4-48.766H1073.07V48.766H48.766z" fill="#d4237a"/><path d="M1079.167 655.937H42.67A42.67 42.67 0 010 613.267V42.67A42.67 42.67 0 0142.67 0h1036.497a42.67 42.67 0 0142.67 42.67v570.596a42.67 42.67 0 01-42.67 42.67zM48.767 607.17H1073.07V48.766H48.766zm487.769 197.626h48.766v194.82h-48.766z" fill="#d4237a"/><path d="M853.577 1024H268.214a24.383 24.383 0 110-48.766h585.363a24.383 24.383 0 110 48.766z" fill="#d4237a"/></svg>