<svg fill="none" height="32" width="32" xmlns="http://www.w3.org/2000/svg"><path d="M18.038.13a16 16 0 10-4.076 31.74A16 16 0 0018.038.13z" fill="#ff6c37"/><g fill="#fff"><path d="M11.568 17.011a.06.06 0 00.07.032l2.56-.552L13.12 15.4l-1.534 1.534a.06.06 0 00-.02.077zM23.555 6.02a2.386 2.386 0 101.005 4.55l-1.623-1.623a.2.2 0 010-.283l2.12-2.118a2.385 2.385 0 00-1.502-.527z"/><path d="M25.348 6.82L23.361 8.8l1.558 1.558a2.4 2.4 0 00.429-3.538zM21.372 10.474h-.035a.629.629 0 00-.123.01H21.2a.938.938 0 00-.132.04l-.033.015a.637.637 0 00-.093.048l-.035.023a.833.833 0 00-.11.09l-5.892 5.894.73.73 6.24-5.478a.716.716 0 00.096-.102l.027-.035a.853.853 0 00.11-.234c0-.019.012-.038.016-.057a.95.95 0 00.016-.12v-.053-.087c0-.029 0-.038-.008-.057a.778.778 0 00-.61-.613h-.03a.864.864 0 00-.12-.014zM13.396 15.117l1.21 1.203 5.909-5.909c.192-.188.443-.305.71-.331-1.045-.8-2.184-.59-7.829 5.037zM22.207 12.077l-.072.07-6.24 5.475 1.061 1.06c2.63-2.488 4.965-4.858 5.251-6.605zM6.643 24.904a.057.057 0 00.051.042l2.72.187-1.525-1.525-1.233 1.232a.06.06 0 00-.013.064zM8.174 23.325l1.608 1.608a.122.122 0 00.152.02.12.12 0 00.062-.139l-.27-1.155a.346.346 0 01.178-.385c2.819-1.413 5.092-2.868 6.761-4.32l-1.12-1.12-2.4.516zM15.201 17.494l-.602-.601-.831.83a.04.04 0 000 .051.038.038 0 00.046.021z"/></g><path d="M25.404 8.11a.185.185 0 10-.33.16.557.557 0 01-.07.602.185.185 0 00.285.237.926.926 0 00.115-.999z" fill="#ff6c37"/></svg>