<svg xmlns="http://www.w3.org/2000/svg" width="800" height="800" viewBox="0 0 157.91 107.14"><defs><style>.prefix__cls-1{fill:#6db33f}</style></defs><g id="prefix__Layer_2" data-name="Layer 2"><g id="prefix__icons"><path class="prefix__cls-1" d="M52.75 87.2a3.21 3.21 0 11-.47-4.52 3.21 3.21 0 01.47 4.52zm51-11.25C94.45 88.3 74.66 84.14 62 84.73c0 0-2.25.13-4.52.5 0 0 .86-.36 1.95-.74 8.89-3.08 13.1-3.7 18.57-6.49 10.17-5.21 20.3-16.56 22.36-28.36C96.44 61 84.66 70.75 73.93 74.72c-7.34 2.7-20.62 5.34-20.62 5.34l-.54-.28c-9-4.39-9.29-24 7.11-30.26 7.19-2.76 14.07-1.24 21.84-3.09 8.29-2 17.89-8.19 21.8-16.32 4.37 12.98 9.63 33.28.2 45.89z"/><path class="prefix__cls-1" d="M122.33 107.14H39.79A39.79 39.79 0 0133.86 28C39 20.88 45.42 12.88 54.74 7.42a54.21 54.21 0 0161.53 4.69l.1.09a77.49 77.49 0 0111.68 12.51 39 39 0 016.64 12.74c.09.33.17.52.21.64.2.1.55.25.83.37l1.07.47a36.37 36.37 0 0113.57 10.71 35.59 35.59 0 01-28 57.5zM82.08 8a46.23 46.23 0 00-23.3 6.32c-8.05 4.72-13.86 12-18.47 18.41l-.19.28A5.61 5.61 0 0136 35.78a31.79 31.79 0 003.8 63.36h82.54a27.59 27.59 0 0021.73-44.58 28.58 28.58 0 00-6.55-6.1 29 29 0 00-4-2.26l-.89-.39a10.19 10.19 0 01-3.16-1.81 8.89 8.89 0 01-2.47-4.39 31 31 0 00-5.37-10.14A70 70 0 00111.2 18.3 46.05 46.05 0 0082.08 8z"/></g></g></svg>