<svg width="256" height="256" viewBox="750 330 550 10" xmlns="http://www.w3.org/2000/svg"><defs><linearGradient id="a"><stop offset="0" stop-color="#269daf"/></linearGradient></defs><path d="M849.35 75.97h344.91a81.76 81.76 0 0181.94 81.94v344.92a81.76 81.76 0 01-81.94 81.93H849.35a81.76 81.76 0 01-81.94-81.93V157.9a81.76 81.76 0 0181.94-81.94z" fill="url(#a)"/><path d="M965.27 213.97l-.39 25.65-31.78 9.97 5.06 19.7 27.07-1.92s1.74 109.42.94 160.11c4.13 23.02 16.26 41.4 34.15 45.94 18.35 9.19 42.8 6.61 61.87-.95 19.16-7.6 48.32-33.6 48.32-33.6l-10.9-18.08s-16.15 12.84-25.84 15.43c-9.85 2.63-21.68 4.5-30.56-.49-7.27-4.08-13.33-12.8-13.37-21.12-.2-48.76-.1-144.93-.1-144.93l56.93 3 5.65-33.76-63.42 3.59.43-61.07z" fill="#fff"/></svg>