<svg fill="none" xmlns="http://www.w3.org/2000/svg" viewBox="0 0 100 100"><mask id="a" maskUnits="userSpaceOnUse" x="0" y="0" width="100" height="100"><path fill-rule="evenodd" clip-rule="evenodd" d="M70.91 99.32a6.22 6.22 0 004.96-.2l20.6-9.9a6.25 6.25 0 003.53-5.63V16.4a6.25 6.25 0 00-3.54-5.63L75.87.88a6.23 6.23 0 00-7.1 1.2L29.36 38.04 12.19 25.01a4.16 4.16 0 00-5.32.24l-5.5 5a4.17 4.17 0 00-.01 6.17L16.25 50 1.36 63.58a4.17 4.17 0 000 6.17l5.51 5a4.16 4.16 0 005.32.24l17.17-13.03 39.41 35.96a6.22 6.22 0 002.14 1.4zm4.1-72.02L45.12 50l29.9 22.7V27.3z" fill="#fff"/></mask><g mask="url(#a)"><path d="M96.46 10.8L75.86.88a6.23 6.23 0 00-7.11 1.2L1.3 63.58a4.17 4.17 0 000 6.17l5.51 5a4.17 4.17 0 005.32.24l81.23-61.62a4.14 4.14 0 016.64 3.3v-.24a6.25 6.25 0 00-3.54-5.63z" fill="#0065A9"/><g filter="url(#prefix__filter0_d)"><path d="M96.46 89.2l-20.6 9.92a6.23 6.23 0 01-7.11-1.2L1.3 36.42a4.17 4.17 0 010-6.17l5.51-5a4.17 4.17 0 015.32-.24l81.23 61.62a4.14 4.14 0 006.64-3.3v.24a6.25 6.25 0 01-3.54 5.63z" fill="#007ACC"/></g><g filter="url(#prefix__filter1_d)"><path d="M75.86 99.13a6.23 6.23 0 01-7.11-1.21c2.3 2.3 6.25.67 6.25-2.6V4.68c0-3.26-3.94-4.9-6.25-2.59a6.23 6.23 0 017.1-1.2l20.6 9.9a6.25 6.25 0 013.55 5.63V83.6a6.25 6.25 0 01-3.54 5.63l-20.6 9.9z" fill="#1F9CF0"/></g><path fill-rule="evenodd" clip-rule="evenodd" d="M70.85 99.32a6.22 6.22 0 004.96-.2l20.59-9.9a6.25 6.25 0 003.54-5.63V16.4a6.25 6.25 0 00-3.54-5.63L75.81.88a6.23 6.23 0 00-7.1 1.2L29.29 38.04 12.13 25.01a4.16 4.16 0 00-5.32.24l-5.5 5a4.17 4.17 0 00-.01 6.17L16.19 50 1.29 63.58a4.17 4.17 0 00.01 6.17l5.5 5a4.16 4.16 0 005.33.24l17.16-13.03 39.42 35.96a6.22 6.22 0 002.14 1.4zm4.1-72.02L45.05 50l29.9 22.7V27.3z" fill="url(#prefix__paint0_linear)" opacity=".25"/></g><defs><filter id="prefix__filter0_d" x="-8.39" y="15.83" width="116.73" height="92.25" filterUnits="userSpaceOnUse" color-interpolation-filters="sRGB"><feFlood flood-opacity="0" result="BackgroundImageFix"/><feColorMatrix in="SourceAlpha" values="0 0 0 0 0 0 0 0 0 0 0 0 0 0 0 0 0 0 127 0"/><feOffset/><feGaussianBlur stdDeviation="4.17"/><feColorMatrix values="0 0 0 0 0 0 0 0 0 0 0 0 0 0 0 0 0 0 0.25 0"/><feBlend mode="overlay" in2="BackgroundImageFix" result="effect1_dropShadow"/><feBlend in="SourceGraphic" in2="effect1_dropShadow" result="shape"/></filter><filter id="prefix__filter1_d" x="60.42" y="-8.08" width="47.92" height="116.15" filterUnits="userSpaceOnUse" color-interpolation-filters="sRGB"><feFlood flood-opacity="0" result="BackgroundImageFix"/><feColorMatrix in="SourceAlpha" values="0 0 0 0 0 0 0 0 0 0 0 0 0 0 0 0 0 0 127 0"/><feOffset/><feGaussianBlur stdDeviation="4.17"/><feColorMatrix values="0 0 0 0 0 0 0 0 0 0 0 0 0 0 0 0 0 0 0.25 0"/><feBlend mode="overlay" in2="BackgroundImageFix" result="effect1_dropShadow"/><feBlend in="SourceGraphic" in2="effect1_dropShadow" result="shape"/></filter><linearGradient id="prefix__paint0_linear" x1="49.94" y1=".26" x2="49.94" y2="99.74" gradientUnits="userSpaceOnUse"><stop stop-color="#fff"/><stop offset="1" stop-color="#fff" stop-opacity="0"/></linearGradient></defs></svg>