<svg class="prefix__icon" viewBox="0 0 1024 1024" xmlns="http://www.w3.org/2000/svg"><path d="M337.39 341.83c-17.76 0-35.52 11.84-35.52 29.6s17.76 29.59 35.52 29.59 29.6-11.84 29.6-29.6c0-18.5-11.85-29.6-29.6-29.6zm240.46 171.65c-11.84 0-22.94 12.58-22.94 23.68 0 12.57 11.84 23.67 22.94 23.67 17.76 0 29.6-11.84 29.6-23.67s-11.84-23.68-29.6-23.68zm-76.2-112.46c17.75 0 29.59-12.58 29.59-29.6 0-17.75-11.84-29.6-29.6-29.6s-35.51 11.85-35.51 29.6 17.75 29.6 35.51 29.6zm204.94 112.46c-11.84 0-22.94 12.58-22.94 23.68 0 12.57 11.84 23.67 22.94 23.67 17.76 0 29.6-11.84 29.6-23.67s-11.84-23.68-29.6-23.68z" fill="#28C445"/><path d="M510.52 2.96C228.62 2.96 0 231.58 0 513.48S228.62 1024 510.52 1024s510.52-228.62 510.52-510.52S792.42 2.96 510.52 2.96zM413.6 644.44c-29.6 0-53.28-5.92-81.4-12.58l-81.38 41.44 22.94-71.77c-58.45-41.44-93.97-95.45-93.97-159.82 0-113.2 105.8-201.99 233.8-201.99 114.69 0 216.05 71.03 236.03 166.48-7.4-.74-14.8-1.48-22.2-1.48-110.98 1.48-198.29 85.08-198.29 188.67 0 17.02 2.96 33.3 7.4 49.57-7.4.74-15.54 1.48-22.94 1.48zm346.26 82.87l17.76 59.19-63.63-35.52c-22.94 5.92-46.61 11.84-70.3 11.84-111.71 0-199.76-76.95-199.76-172.4-.74-94.7 87.3-171.64 198.29-171.64 105.8 0 199.03 77.68 199.03 172.39 0 53.27-34.78 100.62-81.39 136.14z" fill="#28C445"/></svg>