<svg class="prefix__icon" viewBox="0 0 1024 1024" xmlns="http://www.w3.org/2000/svg"><path d="M512 1024C229.23 1024 0 794.77 0 512S229.23 0 512 0s512 229.23 512 512-229.23 512-512 512zM382.13 267.52s-36.2 2.12-49 24.5c-12.8 22.35-54.3 137.36-54.3 137.36s13.85 6.37 37.3-10.64c23.4-17.08 30.86-46.88 30.86-46.88l42.6-2.12 1.07 121.41s-73.51-1.1-88.4 0c-14.92 1.06-23.4 40.45-23.4 40.45h111.8s-9.59 67.11-38.37 116.08c-28.7 49-83.01 87.3-83.01 87.3s39.38 15.98 77.71-6.37 66.6-120.68 66.6-120.68l89.96 110.04s8.2-52.4-1.46-67.18c-9.7-14.81-62.24-74.28-62.24-74.28l-22.93 20.23 16.3-65.1h97.98s0-38.4-19.16-40.49c-19.17-2.15-78.81 0-78.81 0v-119.3h88.43s-1.1-39.38-18.14-39.38H359.78l22.3-64.95zm169.99 61.18V687.3h36.02l13.1 44.98 63.34-44.98h89.05V328.7H552.12zm42.68 39.94h117.87v277.9h-41.88l-53.39 40.24-11.63-40.23H594.8V368.64z" fill="#0E87EA"/></svg>