<svg t="1698903359168" class="icon" viewBox="0 0 1024 1024" version="1.1" xmlns="http://www.w3.org/2000/svg" p-id="9481" width="200" height="200"><path d="M512 1024C229.229714 1024 0 794.770286 0 512S229.229714 0 512 0s512 229.229714 512 512-229.229714 512-512 512zM382.134857 267.52s-36.205714 2.121143-49.005714 24.502857c-12.8 22.345143-54.308571 137.362286-54.308572 137.362286s13.860571 6.363429 37.302858-10.642286c23.405714-17.078857 30.866286-46.884571 30.866285-46.884571l42.605715-2.121143 1.060571 121.417143s-73.508571-1.097143-88.393143 0c-14.921143 1.060571-23.405714 40.448-23.405714 40.448h111.798857s-9.581714 67.108571-38.363429 116.077714c-28.708571 49.005714-83.017143 87.296-83.017142 87.296s39.387429 15.981714 77.714285-6.363429 66.596571-120.685714 66.596572-120.685714l89.965714 110.043429s8.192-52.406857-1.462857-67.181715c-9.691429-14.811429-62.244571-74.276571-62.244572-74.276571l-22.930285 20.224 16.310857-65.097143h97.974857s0-38.4-19.163429-40.484571c-19.163429-2.157714-78.811429 0-78.811428 0v-119.296h88.429714s-1.097143-39.387429-18.139428-39.387429h-143.725715l22.308572-64.950857z m169.984 61.184v358.582857h36.022857l13.092572 44.982857 63.341714-44.982857h89.051429V328.704h-201.508572z m42.678857 39.936h117.869715v277.906286h-41.874286l-53.394286 40.228571-11.629714-40.228571h-10.971429V368.64z" fill="#0E87EA" p-id="9482"></path></svg>